HIERARCHY
ROOT Hips
{
  OFFSET 54.7175 85.6143 13.2309
  CHANNELS 6 Xposition Yposition Zposition Zrotation Xrotation Yrotation
  JOINT spine
  {
    OFFSET 0 6.3926 0.367606
    CHANNELS 3 Zrotation Xrotation Yrotation
    JOINT spine1
    {
      OFFSET 0 9.17611 0
      CHANNELS 3 Zrotation Xrotation Yrotation
      JOINT spine2
      {
        OFFSET 0 8.79238 0
        CHANNELS 3 Zrotation Xrotation Yrotation
        JOINT Neck
        {
          OFFSET 0 22.5737 1.07624
          CHANNELS 3 Zrotation Xrotation Yrotation
          JOINT Head
          {
            OFFSET 0 6.82011 0
            CHANNELS 3 Zrotation Xrotation Yrotation
            End Site
            {
              OFFSET 0 16.5085 -5.44427
            }
          }
        }
        JOINT RightShoulder
        {
          OFFSET -3.70221 9.49509 -0.515508
          CHANNELS 3 Zrotation Xrotation Yrotation
          JOINT RightArm
          {
            OFFSET 0 12.4537 0
            CHANNELS 3 Zrotation Xrotation Yrotation
            JOINT RightArmRoll
            {
              OFFSET 0 6.28686 0
              CHANNELS 3 Zrotation Xrotation Yrotation
              JOINT RightForeArm
              {
                OFFSET 0 18.3114 0
                CHANNELS 3 Zrotation Xrotation Yrotation
                JOINT RightForeArmRoll
                {
                  OFFSET 0 7.05482 0
                  CHANNELS 3 Zrotation Xrotation Yrotation
                  JOINT RightHand
                  {
                    OFFSET 0 14.1575 0
                    CHANNELS 3 Zrotation Xrotation Yrotation
                    End Site
                    {
                      OFFSET 0 0 0
                    }
                  }
                }
              }
            }
          }
        }
        JOINT LeftShoulder
        {
          OFFSET 3.70221 9.49509 -0.515508
          CHANNELS 3 Zrotation Xrotation Yrotation
          JOINT LeftArm
          {
            OFFSET 0 12.4537 0
            CHANNELS 3 Zrotation Xrotation Yrotation
            JOINT LeftArmRoll
            {
              OFFSET 0 6.28686 0
              CHANNELS 3 Zrotation Xrotation Yrotation
              JOINT LeftForeArm
              {
                OFFSET 0 18.3114 0
                CHANNELS 3 Zrotation Xrotation Yrotation
                JOINT LeftForeArmRoll
                {
                  OFFSET 0 7.05482 0
                  CHANNELS 3 Zrotation Xrotation Yrotation
                  JOINT LeftHand
                  {
                    OFFSET 0 14.1575 0
                    CHANNELS 3 Zrotation Xrotation Yrotation
                    End Site
                    {
                      OFFSET 0 0 0
                    }
                  }
                }
              }
            }
          }
        }
      }
    }
  }
  JOINT RightUpLeg
  {
    OFFSET -5.66615 -1.03903 -0.87161
    CHANNELS 3 Zrotation Xrotation Yrotation
    JOINT RightUpLegRoll
    {
      OFFSET 0 16.6005 0
      CHANNELS 3 Zrotation Xrotation Yrotation
      JOINT RightLeg
      {
        OFFSET 0 -20.5572 0
        CHANNELS 3 Zrotation Xrotation Yrotation
        JOINT RightLegRoll
        {
          OFFSET 0 20.6244 0
          CHANNELS 3 Zrotation Xrotation Yrotation
          JOINT RightFoot
          {
            OFFSET 0 17.1664 0
            CHANNELS 3 Zrotation Xrotation Yrotation
            JOINT RightToeBase
            {
              OFFSET 0 14.3502 0
              CHANNELS 3 Zrotation Xrotation Yrotation
              End Site
              {
                OFFSET 0.00608252 6.94971 -0.801061
              }
            }
          }
        }
      }
    }
  }
  JOINT LeftUpLeg
  {
    OFFSET 5.66615 -1.03903 -0.87161
    CHANNELS 3 Zrotation Xrotation Yrotation
    JOINT LeftUpLegRoll
    {
      OFFSET 0 16.6006 0
      CHANNELS 3 Zrotation Xrotation Yrotation
      JOINT LeftLeg
      {
        OFFSET 0 20.5571 0
        CHANNELS 3 Zrotation Xrotation Yrotation
        JOINT LeftLegRoll
        {
          OFFSET 0 20.8151 0
          CHANNELS 3 Zrotation Xrotation Yrotation
          JOINT LeftFoot
          {
            OFFSET 0 16.9757 0
            CHANNELS 3 Zrotation Xrotation Yrotation
            JOINT LeftToeBase
            {
              OFFSET 0 14.3502 0
              CHANNELS 3 Zrotation Xrotation Yrotation
              End Site
              {
                OFFSET -0.0272592 6.94971 -0.801061
              }
            }
          }
        }
      }
    }
  }
}
MOTION
Frames: 11
Frame Time: 0.00208333
54.08 85.6578 14.0086 -2.34293 -3.32295 -4.05884 -0.410526 -1.01804 -0.129017 -0.8229 1.96734 -0.20806 -0.821221 3.61232 -0.194493 8.67579 11.2278 -1.04968 -4.01597 9.99562 1.61503 26.0322 -19.8385 -17.4682 65.0683 37.3188 60.7877 -2.18459e-005 -2.0262e-006 -4.41255e-006 167.654 67.2007 -156.961 -1.88937e-008 2.37043e-006 -3.00783 8.02885 -4.95146 0.697674 -55.2433 1.19829 -1.27333 -111.206 14.0015 -1.14194 2.11422e-006 -2.8449e-007 3.15868e-006 -10.2122 4.32158 0.925451 -1.33553e-007 -8.53656e-007 3 -8.02892 -4.95146 -0.697676 177.356 -1.19407 -0.34583 180 7.01537e-015 178.881 177.653 5.7867 179.702 1.12726e-006 -1.61772e-006 0.0419879 -18.3133 67.4751 19.0994 8.13649 25.2327 -3.48774 -172.488 -0.892475 -1.05771 4.54188e-006 -4.6773e-006 -1.03859 -1.04611 -8.97159 0.554229 -8.75559e-007 3.14676e-006 -0.0591065 18.1995 69.573 -20.8543 -8.13653 25.2332 3.48699 
54.0908 85.6739 14.0056 -2.34324 -3.32729 -4.06482 -0.411605 -1.01688 -0.129059 -0.825359 1.96966 -0.208208 -0.823677 3.61464 -0.194593 8.68463 11.2103 -1.0475 -4.03389 9.99632 1.61876 26.0991 -19.818 -17.4312 65.124 37.331 60.7111 -2.18459e-005 -2.0262e-006 -4.41255e-006 167.536 67.5153 -156.934 -1.88937e-008 2.37043e-006 -3.00783 8.02885 -4.95146 0.697674 -55.2317 1.18654 -1.26725 -111.216 14.011 -1.12056 2.11422e-006 -2.8449e-007 3.15868e-006 -10.2188 4.35931 0.929257 -1.33553e-007 -8.53656e-007 3 -8.02892 -4.95146 -0.697676 177.352 -1.19522 -0.341754 180 7.01537e-015 178.881 177.649 5.78509 179.703 1.12726e-006 -1.61772e-006 0.041954 -18.3139 67.4758 19.1003 8.13649 25.2327 -3.48774 -172.489 -0.896628 -1.06158 4.54188e-006 -4.6773e-006 -1.03862 -1.05284 -8.97115 0.553123 -8.75559e-007 3.14676e-006 -0.0590209 18.1997 69.5718 -20.8532 -8.13653 25.2332 3.48699 
54.0964 85.6709 14.014 -2.34357 -3.33112 -4.07046 -0.412721 -1.01577 -0.129076 -0.827921 1.97188 -0.208342 -0.826236 3.61686 -0.194676 8.69561 11.1908 -1.04577 -4.05466 9.99847 1.62267 26.1674 -19.7982 -17.3949 65.1777 37.3441 60.6406 -2.18459e-005 -2.0262e-006 -4.41255e-006 167.41 67.8348 -156.898 -1.88937e-008 2.37043e-006 -3.00783 8.02885 -4.95146 0.697674 -55.2199 1.17424 -1.26084 -111.225 14.0208 -1.09936 2.11422e-006 -2.8449e-007 3.15868e-006 -10.2252 4.39767 0.933157 -1.33553e-007 -8.53656e-007 3 -8.02892 -4.95146 -0.697676 177.347 -1.19596 -0.33804 180 7.01537e-015 178.881 177.646 5.78325 179.703 1.12726e-006 -1.61772e-006 0.0419199 -18.3145 67.4766 19.1012 8.13649 25.2327 -3.48774 -172.49 -0.900246 -1.06587 4.54188e-006 -4.6773e-006 -1.03866 -1.06006 -8.97038 0.551927 -8.75559e-007 3.14676e-006 -0.0589364 18.1998 69.5702 -20.8518 -8.13653 25.2332 3.48699 
54.0985 85.6736 14.0093 -2.3439 -3.33454 -4.0758 -0.413857 -1.01471 -0.129077 -0.830543 1.97402 -0.208475 -0.828853 3.61899 -0.194756 8.7079 11.1699 -1.04433 -4.07743 10.0017 1.62668 26.2366 -19.7788 -17.3589 65.2296 37.3578 60.5767 -2.18459e-005 -2.0262e-006 -4.41255e-006 167.277 68.1586 -156.852 -1.88937e-008 2.37043e-006 -3.00783 8.02885 -4.95146 0.697674 -55.2079 1.16148 -1.25414 -111.234 14.0309 -1.07839 2.11422e-006 -2.8449e-007 3.15868e-006 -10.2313 4.43653 0.937133 -1.33553e-007 -8.53656e-007 3 -8.02892 -4.95146 -0.697676 177.343 -1.19637 -0.334613 180 7.01537e-015 178.881 177.642 5.78125 179.703 1.12726e-006 -1.61772e-006 0.0418857 -18.3153 67.4776 19.1022 8.13649 25.2327 -3.48774 -172.49 -0.90344 -1.07056 4.54188e-006 -4.6773e-006 -1.0387 -1.06773 -8.96932 0.550649 -8.75559e-007 3.14676e-006 -0.0588531 18.1998 69.5682 -20.8501 -8.13653 25.2332 3.48699 
54.1022 85.6731 14.004 -2.34424 -3.33764 -4.08092 -0.414996 -1.01368 -0.12907 -0.833179 1.97609 -0.208621 -0.831484 3.62106 -0.194848 8.72067 11.1479 -1.04301 -4.10131 10.0057 1.63072 26.3067 -19.7597 -17.3231 65.2793 37.3718 60.5201 -2.18459e-005 -2.0262e-006 -4.41255e-006 167.136 68.4862 -156.797 -1.88937e-008 2.37043e-006 -3.00782 8.02885 -4.95146 0.697674 -55.1961 1.14835 -1.24717 -111.242 14.0414 -1.0577 2.11422e-006 -2.8449e-007 3.15868e-006 -10.2374 4.47574 0.941167 -1.33553e-007 -8.53656e-007 3 -8.02892 -4.95146 -0.697676 177.339 -1.19652 -0.331392 180 7.01537e-015 178.881 177.639 5.77913 179.703 1.12726e-006 -1.61772e-006 0.0418513 -18.3161 67.4786 19.1033 8.13649 25.2327 -3.48774 -172.49 -0.906319 -1.07561 4.54188e-006 -4.6773e-006 -1.03874 -1.07584 -8.96802 0.549295 -8.75559e-007 3.14676e-006 -0.0587711 18.1998 69.566 -20.8481 -8.13653 25.2332 3.48699 
54.1067 85.6613 14.0068 -2.34459 -3.34052 -4.08586 -0.416119 -1.01267 -0.129066 -0.835786 1.9781 -0.208793 -0.834086 3.62307 -0.194967 8.73309 11.1254 -1.04166 -4.12544 10.0101 1.63472 26.3773 -19.7406 -17.2874 65.3268 37.3858 60.4713 -2.18459e-005 -2.0262e-006 -4.41255e-006 166.988 68.817 -156.732 -1.88937e-008 2.37043e-006 -3.00782 8.02885 -4.95146 0.697674 -55.1847 1.13494 -1.23996 -111.249 14.052 -1.03734 2.11422e-006 -2.8449e-007 3.15868e-006 -10.2433 4.51515 0.945242 -1.33553e-007 -8.53656e-007 3 -8.02892 -4.95146 -0.697676 177.335 -1.19647 -0.3283 180 7.01537e-015 178.881 177.636 5.77692 179.703 1.12726e-006 -1.61772e-006 0.0418169 -18.317 67.4797 19.1043 8.13649 25.2327 -3.48774 -172.49 -0.908994 -1.08101 4.54188e-006 -4.6773e-006 -1.03878 -1.08434 -8.96651 0.547873 -8.75559e-007 3.14676e-006 -0.0586905 18.1998 69.5635 -20.846 -8.13653 25.2332 3.48699 
54.1145 85.6655 13.9965 -2.34492 -3.34327 -4.0907 -0.41721 -1.01169 -0.129073 -0.83832 1.98007 -0.209006 -0.836614 3.62504 -0.195128 8.74434 11.1027 -1.0401 -4.14894 10.0144 1.6386 26.4482 -19.7213 -17.2514 65.3721 37.3995 60.4309 -2.18459e-005 -2.0262e-006 -4.41255e-006 166.831 69.1505 -156.657 -1.88937e-008 2.37043e-006 -3.00782 8.02885 -4.95146 0.697674 -55.1738 1.12134 -1.23254 -111.256 14.0629 -1.01735 2.11422e-006 -2.8449e-007 3.15868e-006 -10.2492 4.55463 0.949339 -1.33553e-007 -8.53656e-007 3 -8.02892 -4.95146 -0.697676 177.331 -1.19632 -0.325259 180 7.01537e-015 178.882 177.633 5.77466 179.703 1.12726e-006 -1.61772e-006 0.0417823 -18.318 67.4809 19.1054 8.13649 25.2327 -3.48774 -172.49 -0.911577 -1.08673 4.54188e-006 -4.6773e-006 -1.03883 -1.09321 -8.96484 0.54639 -8.75559e-007 3.14676e-006 -0.0586113 18.1998 69.5609 -20.8438 -8.13653 25.2332 3.48699 
54.1162 85.6564 13.9937 -2.34525 -3.34598 -4.09548 -0.41825 -1.01072 -0.1291 -0.840737 1.98202 -0.209274 -0.839024 3.62699 -0.195346 8.75357 11.0804 -1.03817 -4.17095 10.0184 1.64228 26.5192 -19.7017 -17.2151 65.4149 37.4126 60.3993 -2.18459e-005 -2.0262e-006 -4.41255e-006 166.668 69.4861 -156.572 -1.88937e-008 2.37043e-006 -3.00781 8.02885 -4.95146 0.697674 -55.1638 1.10764 -1.22495 -111.262 14.074 -0.997796 2.11422e-006 -2.8449e-007 3.15868e-006 -10.2551 4.59404 0.953441 -1.33553e-007 -8.53656e-007 3 -8.02892 -4.95146 -0.697676 177.327 -1.19614 -0.32219 180 7.01537e-015 178.882 177.63 5.77241 179.703 1.12726e-006 -1.61772e-006 0.0417476 -18.3189 67.4821 19.1065 8.13649 25.2327 -3.48774 -172.49 -0.914177 -1.09273 4.54188e-006 -4.6773e-006 -1.03888 -1.10243 -8.96303 0.544852 -8.75559e-007 3.14676e-006 -0.0585338 18.2 69.5582 -20.8414 -8.13653 25.2332 3.48699 
54.1253 85.6592 13.9999 -2.34557 -3.34875 -4.10027 -0.419224 -1.00975 -0.129158 -0.842993 1.98395 -0.20961 -0.841272 3.62892 -0.195634 8.75997 11.0589 -1.0357 -4.19059 10.0217 1.64568 26.59 -19.6814 -17.1782 65.4552 37.4248 60.3772 -2.18459e-005 -2.0262e-006 -4.41255e-006 166.497 69.8233 -156.476 -1.88937e-008 2.37043e-006 -3.00781 8.02885 -4.95146 0.697674 -55.1548 1.09394 -1.2172 -111.266 14.0853 -0.97872 2.11422e-006 -2.8449e-007 3.15868e-006 -10.2611 4.63323 0.957529 -1.33553e-007 -8.53656e-007 3 -8.02892 -4.95146 -0.697676 177.323 -1.19599 -0.319016 180 7.01537e-015 178.882 177.627 5.77023 179.704 1.12726e-006 -1.61772e-006 0.0417128 -18.3199 67.4833 19.1076 8.13649 25.2327 -3.48774 -172.49 -0.916906 -1.09899 4.54188e-006 -4.6773e-006 -1.03893 -1.11196 -8.96113 0.543268 -8.75559e-007 3.14676e-006 -0.058458 18.2003 69.5555 -20.839 -8.13653 25.2332 3.48699 
54.1368 85.6629 13.9936 -2.34587 -3.35168 -4.10514 -0.420112 -1.00879 -0.129256 -0.845044 1.98588 -0.210028 -0.843314 3.63085 -0.196009 8.7627 11.0386 -1.03253 -4.20699 10.0239 1.64873 26.6604 -19.6604 -17.1406 65.4929 37.4358 60.3651 -2.18459e-005 -2.0262e-006 -4.41255e-006 166.318 70.1615 -156.37 -1.88937e-008 2.37043e-006 -3.00781 8.02885 -4.95146 0.697674 -55.1469 1.08033 -1.20934 -111.27 14.0967 -0.960171 2.11422e-006 -2.8449e-007 3.15868e-006 -10.2671 4.67206 0.961587 -1.33553e-007 -8.53656e-007 3 -8.02892 -4.95146 -0.697676 177.318 -1.19596 -0.315657 180 7.01537e-015 178.882 177.624 5.76814 179.704 1.12726e-006 -1.61772e-006 0.0416779 -18.3208 67.4845 19.1087 8.13649 25.2327 -3.48774 -172.489 -0.919875 -1.10548 4.54188e-006 -4.6773e-006 -1.03899 -1.12177 -8.95918 0.541644 -8.75559e-007 3.14676e-006 -0.058384 18.2008 69.5527 -20.8366 -8.13653 25.2332 3.48699 
54.1382 85.6624 13.9907 -2.34616 -3.35486 -4.11013 -0.420897 -1.00782 -0.129402 -0.846845 1.98783 -0.210542 -0.845106 3.63279 -0.196485 8.76093 11.0201 -1.02849 -4.21928 10.0247 1.65136 26.7301 -19.6384 -17.102 65.5277 37.4452 60.3635 -2.18459e-005 -2.0262e-006 -4.41255e-006 166.131 70.5001 -156.254 -1.88937e-008 2.37043e-006 -3.00781 8.02885 -4.95146 0.697674 -55.1406 1.06689 -1.20138 -111.272 14.1081 -0.942201 2.11422e-006 -2.8449e-007 3.15868e-006 -10.2733 4.71039 0.965594 -1.33553e-007 -8.53656e-007 3 -8.02892 -4.95146 -0.697676 177.314 -1.19611 -0.312036 180 7.01537e-015 178.882 177.621 5.76617 179.704 1.12726e-006 -1.61772e-006 0.041643 -18.3217 67.4856 19.1098 8.13649 25.2327 -3.48774 -172.489 -0.923193 -1.11218 4.54188e-006 -4.6773e-006 -1.03904 -1.13184 -8.95722 0.539987 -8.75559e-007 3.14676e-006 -0.0583119 18.2015 69.55 -20.8343 -8.13653 25.2332 3.48699 
